<svg xmlns="http://www.w3.org/2000/svg" width="162" height="24" fill="none" viewBox="0 0 162 24">
  <path fill="#FF0" fill-rule="evenodd" d="M16.278.212h-4.887L.571 23.932h4.887L16.278.211Z" clip-rule="evenodd"/>
  <path fill="#fff" fill-rule="evenodd" d="M122.478 2.408c1.257 1.1 2.014 2.706 1.994 5.022-.006 1.624-.313 2.972-.992 4.09-.659 1.086-1.662 1.944-3.055 2.63l4.715 9.095V.212h5.93v9.997c1.348-2.073 4.616-6.82 6.242-9.183l.001-.001.517-.752.042-.061h7.342l-8.032 10.516 7.997 13.203h-7.025l-.041-.07-.779-1.364-1.715-2.999-1.715-3-.565-.988-.118-.207-2.151 2.358v6.267h-5.789v.003h-6.295l-4.147-8.29h-2.841v8.29h-5.945V.205l.146.007c1.092.05 2.377.016 3.758-.02.536-.014 1.085-.029 1.644-.039 1.992-.036 4.087-.016 5.992.283 1.904.298 3.634.877 4.885 1.972Zm-9.143 8.618a27.627 27.627 0 0 0-1.336-.016V4.843c.408.006.846-.005 1.29-.017.269-.007.539-.014.808-.017.772-.01 1.533.013 2.202.157.669.143 1.234.404 1.629.86.393.456.634 1.124.617 2.114v.005c.018.987-.222 1.65-.616 2.101-.395.453-.961.709-1.632.848-.671.14-1.433.16-2.206.149-.251-.004-.505-.01-.756-.017Zm-17.95 12.953c5.687.062 10.35-4.738 10.106-11.435.535-7.088-4.084-12.48-10.107-12.377-3.361.057-5.956 1.578-7.686 3.875-1.726 2.294-2.587 5.356-2.497 8.502.17 5.97 3.835 11.366 10.183 11.435Zm-4.256-11.44c-.024-1.568.054-3.515.638-5.066.291-.773.706-1.44 1.289-1.913.58-.472 1.337-.759 2.33-.759.974 0 1.72.293 2.296.772.578.481.992 1.158 1.287 1.938.59 1.564.686 3.512.673 5.028-.014 1.492-.211 3.211-.843 4.552-.316.668-.736 1.236-1.291 1.637-.553.399-1.248.637-2.121.633-.878-.004-1.573-.24-2.126-.632-.553-.394-.972-.952-1.285-1.612-.628-1.323-.822-3.035-.847-4.579ZM64.331.211h-5.89l5.032 23.72h6.05l2.955-12.88 3.016 12.88h6.065L86.577.211h-5.874l-2.576 14.126L74.997.212H69.99l-3.083 14.123L64.331.212Zm90.529 18.69c.421-.327.684-.795.676-1.446l-.002-.03c-.036-.534-.153-.936-.337-1.254a2.235 2.235 0 0 0-.76-.766c-.325-.208-.716-.379-1.17-.555-.178-.07-.368-.14-.567-.214h-.002c-.299-.111-.619-.23-.95-.363-1.954-.582-4.013-1.456-5.565-2.682-1.554-1.229-2.614-2.822-2.525-4.833 0-2.765 1.787-4.72 4.346-5.728 2.528-1.065 5.882-1.128 8.593-.1 2.718 1.03 4.813 3.169 4.754 6.507l-.003.138h-5.81l.011-.15c.051-.696-.14-1.253-.479-1.681-.341-.43-.837-.738-1.403-.919-1.136-.362-2.519-.206-3.415.439-.6.57-.833 1.075-.837 1.513-.004.439.223.848.623 1.227.805.764 2.25 1.348 3.578 1.732l.002.001h.002c1.592.51 2.904 1.056 3.935 1.648 4.291 2.144 5.206 8.007 1.469 10.812h-.001c-2.492 1.828-6.57 2.23-9.982 1.224-3.416-1.007-6.221-3.446-6.076-7.343l.005-.135h5.828v.14c0 1.199.311 2.056.908 2.598l.001.001.002.001c.301.287.821.527 1.446.678a6.09 6.09 0 0 0 1.995.14c.667-.07 1.276-.262 1.71-.6Zm-136.246 5.03-.003-.141h-.136V.205l.147.007c.89.045 1.96.024 3.118 0l.078-.001c1.134-.024 2.349-.05 3.549-.017 2.444.066 4.863.371 6.437 1.446 3.861 2.143 5.588 6.587 5.336 10.934.02 4.077-1.755 7.847-5.247 9.878-1.567 1.112-4.015 1.432-6.485 1.503-1.241.036-2.497.009-3.662-.017h-.012c-1.104-.024-2.124-.046-2.978-.013v.006h-.142Zm10.87-17.8c-1.076-1.059-2.732-1.482-5.086-1.289v14.473c2.698.236 4.393-.37 5.405-1.654 1.038-1.316 1.391-3.378 1.307-6.102v-.005c-.003-2.571-.529-4.344-1.626-5.424ZM41.856 9.73l.204.204v4.004l.135.005c.291.01.637.003 1.008-.004l.21-.004c.45-.008.93-.012 1.397.013.467.025.916.079 1.305.185.39.107.71.264.931.488l.007.007.007.006c.23.176.424.465.565.825.14.36.224.78.24 1.208.033.864-.212 1.718-.776 2.168l-.006.005-.005.006c-.731.73-1.972.9-3.037.573-1.062-.325-1.896-1.124-1.873-2.279l.002-.143h-5.586l-.004.137c-.086 3.549 2.479 5.663 5.56 6.448 3.073.783 6.715.26 8.878-1.51 1.863-1.342 2.619-3.625 2.339-5.728-.266-1.995-1.466-3.848-3.558-4.596 3.91-1.83 4.322-7.254 1.033-9.768-2-1.658-5.478-2.172-8.44-1.46-2.967.714-5.48 2.679-5.454 6.033l.001.14h5.556v-.142c-.005-.983.756-1.635 1.714-1.881.96-.247 2.048-.063 2.627.559.755.862.865 2.057.461 3.004-.402.942-1.309 1.632-2.598 1.497h-2.843Zm13.187 9.562c.504-.52 1.254-.852 2.238-.835.983-.017 1.733.316 2.238.835.502.518.752 1.212.752 1.902s-.25 1.384-.752 1.901c-.505.52-1.255.852-2.238.835-.983.017-1.733-.316-2.237-.835a2.726 2.726 0 0 1-.752-1.902c0-.69.249-1.384.751-1.901Z" clip-rule="evenodd"/>
</svg>
