<svg xmlns="http://www.w3.org/2000/svg" width="33" height="24" fill="none" viewBox="0 0 33 24">
  <path fill="#222F3E" stroke="#222F3E" d="m12.122 18.26-.02-12.52c0-.144.035-.196.042-.206.01-.005.063-.034.218-.034h5.018c1.507 0 2.533.308 3.172.835.64.529.968 1.244.968 2.205 0 .553-.171 1.066-.531 1.552-.367.495-.807.829-1.322 1.019l-.42.155.108.435.02.08.08.316.32.056c.297.05.637.194 1.022.459.365.251.679.582.938 1.001.24.389.365.833.365 1.347 0 1.203-.382 2.048-1.093 2.62-.728.586-1.863.92-3.487.92h-5.158c-.144 0-.196-.027-.207-.034-.006-.01-.033-.062-.033-.206ZM13.88 6.72h-.5v4.52h3.95c.77 0 1.443-.191 1.969-.624.525-.431.803-1.001.803-1.676 0-.694-.237-1.287-.767-1.689-.503-.38-1.2-.531-2.005-.531h-3.45Zm0 5.76h-.5v4.78h4.54c.798 0 1.49-.187 2.002-.633.523-.455.758-1.089.758-1.827 0-.735-.291-1.344-.882-1.76-.565-.395-1.324-.56-2.213-.56H13.88Z"/>
</svg>
