<svg xmlns="http://www.w3.org/2000/svg" width="33" height="24" fill="none" viewBox="0 0 33 24">
  <path fill="#222F3E" stroke="#222F3E" d="M14.3 10c0 .274-.226.5-.5.5a.503.503 0 0 1-.5-.5c0-.274.226-.5.5-.5s.5.226.5.5Zm6 0c0 .274-.226.5-.5.5a.503.503 0 0 1-.5-.5c0-.274.226-.5.5-.5s.5.226.5.5Zm.2 3.5a3.995 3.995 0 0 1-3.7 2.5 3.995 3.995 0 0 1-3.7-2.5h7.4ZM9.3 12c0-4.144 3.346-7.5 7.5-7.5 4.144 0 7.5 3.356 7.5 7.5s-3.347 7.5-7.5 7.5A7.491 7.491 0 0 1 9.3 12Zm.5 0a7 7 0 1 0 14 0 7 7 0 0 0-14 0Z"/>
</svg>
