<svg xmlns="http://www.w3.org/2000/svg" width="33" height="24" fill="none" viewBox="0 0 33 24">
  <path fill="#222F3E" stroke="#222F3E" d="M9.3 15.74v1.206l.853-.853 3.27-3.27a.25.25 0 0 1 .354 0l2.57 2.57.353.353.353-.353 4.103-4.103a.25.25 0 0 1 .354 0l1.936 1.936.854.854V4.5h-15v11.24Zm.146 1.767-.146.147V19.5h3.646l.147-.146 2.9-2.9.353-.354-.353-.354-2.04-2.039-.353-.353-.354.353-3.8 3.8ZM24.3 14.994v-.207l-.147-.147-2.466-2.466-.354-.354-.353.354-6.473 6.472-.854.854H24.3v-4.506ZM8.8 3.5h16a.5.5 0 0 1 .5.5v16a.5.5 0 0 1-.5.5h-16a.5.5 0 0 1-.5-.5V4a.5.5 0 0 1 .5-.5ZM16.3 9a1.5 1.5 0 1 1-3 0 1.5 1.5 0 0 1 3 0Z"/>
</svg>
