<svg xmlns="http://www.w3.org/2000/svg" width="462" height="400" fill="none" viewBox="0 0 462 400">
  <g clip-path="url(#a)">
    <path fill="#F5F5F5" d="M231 198.455c-61.59 0-119.552-5.712-163.159-16.055C24.081 171.979 0 158.086 0 143.189c0-14.897 24.08-28.714 67.841-39.134C111.448 93.712 169.41 88 231 88c61.59 0 119.552 5.712 163.159 16.055C437.92 114.475 462 128.369 462 143.189s-24.08 28.79-67.841 39.133C350.552 192.666 292.667 198.377 231 198.377v.078Zm0-109.683C104.116 88.772.772 113.24.772 143.189c0 29.948 103.267 54.416 230.228 54.416 126.961 0 230.228-24.391 230.228-54.416 0-30.026-103.267-54.417-230.228-54.417Z"/>
    <path fill="#F5F5F5" d="M231 203.395c-59.351 0-115.075-5.481-157.061-15.515-42.14-10.034-65.294-23.465-65.294-37.822 0-14.356 23.23-27.787 65.294-37.821 41.986-10.035 97.71-15.515 157.061-15.515 59.352 0 115.076 5.48 157.062 15.515 42.14 10.034 65.294 23.465 65.294 37.821 0 14.357-23.231 27.788-65.294 37.822-41.986 10.034-97.71 15.515-157.062 15.515Zm0-105.901c-122.176 0-221.506 23.542-221.506 52.564 0 29.023 99.407 52.565 221.584 52.565 122.176 0 221.584-23.542 221.584-52.565 0-29.022-99.486-52.564-221.662-52.564Z"/>
    <path fill="#F5F5F5" d="M231.001 208.412c-57.036 0-110.599-5.326-150.887-14.975-40.52-9.725-62.825-22.692-62.825-36.509 0-13.816 22.305-26.861 62.825-36.509 40.288-9.649 93.928-14.975 150.887-14.975s110.599 5.326 150.887 14.975c40.519 9.725 62.747 22.693 62.747 36.509 0 13.817-22.305 26.861-62.747 36.509-40.288 9.649-93.928 14.975-150.887 14.975Zm0-102.196c-117.391 0-212.863 22.693-212.863 50.635 0 27.942 95.472 50.712 212.863 50.712s212.862-22.77 212.862-50.712c0-27.942-95.471-50.712-212.862-50.712v.077Z"/>
    <path fill="#F5F5F5" d="M231.001 213.352c-54.721 0-106.123-5.095-144.79-14.434-38.821-9.34-60.277-21.844-60.277-35.198 0-13.353 21.378-25.857 60.277-35.197 38.667-9.34 90.147-14.434 144.79-14.434 54.644 0 106.123 5.094 144.79 14.434 38.821 9.34 60.278 21.844 60.278 35.197 0 13.354-21.379 25.858-60.278 35.198-38.667 9.339-90.146 14.434-144.79 14.434Zm0-98.491c-112.606 0-204.218 21.921-204.218 48.859 0 26.939 91.612 48.86 204.218 48.86s204.219-21.921 204.219-48.86c0-26.938-91.613-48.859-204.219-48.859Z"/>
    <path fill="#F5F5F5" d="M230.999 218.369c-52.405 0-101.646-4.94-138.692-13.894-37.2-9.031-57.73-21.072-57.73-33.885 0-12.813 20.53-24.931 57.73-33.885 37.046-8.954 86.287-13.894 138.692-13.894 52.406 0 101.647 4.94 138.693 13.894 37.201 9.031 57.731 21.072 57.731 33.885 0 12.813-20.53 24.931-57.731 33.885-37.046 8.954-86.287 13.894-138.693 13.894Zm0-94.786c-107.82 0-195.574 21.072-195.574 47.007S123.18 217.597 231 217.597c107.821 0 195.575-21.072 195.575-47.007S338.821 123.583 231 123.583Z"/>
    <path fill="#F5F5F5" d="M231 223.309c-50.09 0-97.17-4.709-132.596-13.354-35.58-8.644-55.183-20.223-55.183-32.572 0-12.35 19.603-23.928 55.184-32.573 35.425-8.645 82.505-13.354 132.595-13.354s97.17 4.709 132.595 13.354c35.58 8.645 55.184 20.223 55.184 32.573 0 12.349-19.604 23.928-55.184 32.572C328.17 218.6 281.09 223.309 231 223.309Zm0-91.081c-103.113 0-186.93 20.223-186.93 45.155 0 24.931 83.894 45.154 186.93 45.154 103.035 0 186.93-20.223 186.93-45.154 0-24.932-83.895-45.155-186.93-45.155Z"/>
    <path fill="#F5F5F5" d="M230.999 228.326c-47.774 0-92.693-4.554-126.421-12.813-33.959-8.336-52.637-19.374-52.637-31.261s18.678-23.001 52.637-31.26c33.805-8.26 78.724-12.814 126.421-12.814 47.698 0 92.694 4.554 126.421 12.814 33.959 8.336 52.637 19.451 52.637 31.26 0 11.81-18.678 23.002-52.637 31.261-33.805 8.259-78.723 12.813-126.421 12.813Zm0-87.376c-98.327 0-178.286 19.451-178.286 43.302S132.672 227.554 231 227.554s178.286-19.451 178.286-43.302S329.328 140.95 231 140.95Z"/>
    <path fill="#F5F5F5" d="M231 233.266c-45.459 0-88.217-4.323-120.324-12.273-32.339-7.95-50.09-18.602-50.09-29.948 0-11.347 17.829-21.999 50.09-29.949 32.184-7.873 74.865-12.273 120.324-12.273s88.216 4.323 120.323 12.273c32.339 7.95 50.09 18.602 50.09 29.949 0 11.346-17.828 21.998-50.09 29.948-32.184 7.873-74.864 12.273-120.323 12.273Zm0-83.671c-93.543 0-169.642 18.602-169.642 41.45 0 22.847 76.099 41.449 169.642 41.449 93.542 0 169.641-18.602 169.641-41.449 0-22.848-76.099-41.45-169.641-41.45Z"/>
    <path fill="#F5F5F5" d="M231 238.283c-43.144 0-83.74-4.168-114.227-11.732-30.717-7.565-47.542-17.753-47.542-28.637 0-10.883 16.902-21.072 47.542-28.636 30.487-7.564 71.083-11.733 114.227-11.733 43.144 0 83.74 4.169 114.226 11.733 30.718 7.564 47.543 17.753 47.543 28.636 0 10.884-16.902 21.072-47.543 28.637-30.486 7.564-71.082 11.732-114.226 11.732Zm0-79.966c-88.757 0-160.998 17.753-160.998 39.597S142.243 237.511 231 237.511c88.757 0 160.998-17.753 160.998-39.597S319.757 158.317 231 158.317Z"/>
    <path fill="#F5F5F5" d="M230.999 243.3c-40.828 0-79.186-3.936-108.129-11.192-29.02-7.256-45.073-16.981-45.073-27.324s15.976-20.069 45.073-27.324c28.865-7.179 67.301-11.192 108.129-11.192 40.829 0 79.187 3.936 108.13 11.192 29.019 7.255 45.073 16.981 45.073 27.324s-15.976 20.068-45.073 27.324c-28.866 7.178-67.301 11.192-108.13 11.192Zm0-76.261c-83.972 0-152.353 16.904-152.353 37.745 0 20.84 68.304 37.744 152.353 37.744s152.354-16.904 152.354-37.744c0-20.841-68.305-37.745-152.354-37.745Z"/>
    <path fill="#F5F5F5" d="M231.001 248.24c-38.513 0-74.711-3.782-101.955-10.652-27.399-6.869-42.526-16.132-42.526-26.012 0-9.88 15.127-19.142 42.526-26.012 27.244-6.869 63.442-10.651 101.955-10.651s74.71 3.782 101.955 10.651c27.398 6.87 42.526 16.132 42.526 26.012 0 9.88-15.128 19.143-42.526 26.012-27.245 6.87-63.442 10.652-101.955 10.652Zm0-72.556c-79.187 0-143.71 16.055-143.71 35.892 0 19.837 64.446 35.892 143.71 35.892 79.264 0 143.709-16.055 143.709-35.892 0-19.837-64.445-35.892-143.709-35.892Z"/>
    <path fill="#F5F5F5" d="M231.001 253.257c-36.197 0-70.234-3.55-95.858-10.111-25.778-6.561-39.979-15.36-39.979-24.7s14.201-18.216 39.979-24.7c25.624-6.483 59.661-10.111 95.858-10.111s70.234 3.55 95.858 10.111c25.778 6.561 39.979 15.36 39.979 24.7s-14.201 18.216-39.979 24.7c-25.624 6.484-59.661 10.111-95.858 10.111Zm0-68.85c-74.479 0-135.065 15.283-135.065 34.039 0 18.757 60.586 34.04 135.065 34.04s135.065-15.283 135.065-34.04c0-18.756-60.586-34.039-135.065-34.039Z"/>
    <path fill="#F5F5F5" d="M230.999 258.197c-70.156 0-127.192-14.82-127.192-32.959 0-18.139 57.036-32.958 127.192-32.958 70.157 0 127.193 14.819 127.193 32.958 0 18.139-57.036 32.959-127.193 32.959Zm0-65.146c-69.693 0-126.343 14.434-126.343 32.187s56.727 32.187 126.343 32.187c69.617 0 126.344-14.434 126.344-32.187s-56.727-32.187-126.344-32.187Z"/>
    <path fill="#F5F5F5" d="M231 263.214c-65.372 0-118.549-13.97-118.549-31.106 0-17.135 53.177-31.106 118.549-31.106 65.371 0 118.548 13.971 118.548 31.106 0 17.136-53.177 31.106-118.548 31.106Zm0-61.44c-64.909 0-117.7 13.584-117.7 30.334s52.791 30.335 117.7 30.335c64.908 0 117.699-13.585 117.699-30.335S295.908 201.774 231 201.774Z"/>
    <path fill="#F5F5F5" d="M231 268.154c-60.586 0-109.904-13.121-109.904-29.253 0-16.132 49.318-29.254 109.904-29.254 60.587 0 109.905 13.122 109.905 29.254S291.587 268.154 231 268.154Zm0-57.735c-60.123 0-109.055 12.735-109.055 28.482 0 15.746 48.932 28.482 109.055 28.482 60.123 0 109.056-12.736 109.056-28.482 0-15.747-48.933-28.482-109.056-28.482Z"/>
    <path fill="#F5F5F5" d="M231.001 273.171c-55.802 0-101.261-12.272-101.261-27.401s45.382-27.401 101.261-27.401c55.878 0 101.26 12.272 101.26 27.401s-45.382 27.401-101.26 27.401Zm0-54.03c-55.339 0-100.412 11.964-100.412 26.629 0 14.666 45.073 26.63 100.412 26.63 55.338 0 100.411-11.964 100.411-26.63 0-14.665-45.073-26.629-100.411-26.629Z"/>
    <path fill="#F5F5F5" d="M231 278.111c-51.016 0-92.539-11.5-92.539-25.548 0-14.048 41.523-25.549 92.539-25.549s92.539 11.501 92.539 25.549-41.523 25.548-92.539 25.548Zm0-50.325c-50.63 0-91.767 11.114-91.767 24.777 0 13.662 41.137 24.777 91.767 24.777 50.63 0 91.767-11.115 91.767-24.777 0-13.663-41.137-24.777-91.767-24.777Z"/>
    <path fill="#F5F5F5" d="M231 283.129c-46.308 0-83.895-10.652-83.895-23.697 0-13.044 37.664-23.696 83.895-23.696 46.231 0 83.895 10.652 83.895 23.696 0 13.045-37.664 23.697-83.895 23.697Zm0-46.621c-45.845 0-83.123 10.266-83.123 22.924 0 12.659 37.278 22.925 83.123 22.925 45.845 0 83.123-10.266 83.123-22.925 0-12.658-37.278-22.924-83.123-22.924Z"/>
    <path fill="#F5F5F5" d="M231.001 288.069c-41.523 0-75.251-9.803-75.251-21.844s33.805-21.844 75.251-21.844c41.445 0 75.25 9.803 75.25 21.844s-33.805 21.844-75.25 21.844Zm0-42.839c-41.06 0-74.479 9.417-74.479 21.072s33.419 21.072 74.479 21.072c41.059 0 74.478-9.417 74.478-21.072s-33.419-21.072-74.478-21.072Z"/>
    <path fill="#F5F5F5" d="M231.001 293.086c-36.738 0-66.606-8.954-66.606-19.992 0-11.037 29.868-19.991 66.606-19.991s66.606 8.954 66.606 19.991c0 11.038-29.868 19.992-66.606 19.992Zm0-39.211c-36.275 0-65.835 8.645-65.835 19.219 0 10.575 29.56 19.22 65.835 19.22 36.275 0 65.835-8.645 65.835-19.22 0-10.574-29.56-19.219-65.835-19.219Z"/>
    <path fill="#F5F5F5" d="M230.999 298.026c-31.952 0-57.962-8.105-57.962-18.139 0-10.035 26.01-18.139 57.962-18.139 31.953 0 57.963 8.104 57.963 18.139 0 10.034-26.01 18.139-57.963 18.139Zm0-35.429c-31.489 0-57.19 7.796-57.19 17.367 0 9.571 25.624 17.367 57.19 17.367 31.567 0 57.191-7.796 57.191-17.367 0-9.571-25.624-17.367-57.191-17.367Z"/>
    <path fill="#F5F5F5" d="M231 303.043c-27.168 0-49.318-7.333-49.318-16.287 0-8.953 21.687-16.286 49.318-16.286 27.63 0 49.318 7.178 49.318 16.286S258.167 303.043 231 303.043Zm0-31.801c-26.782 0-48.469 6.947-48.469 15.514 0 8.568 21.764 15.515 48.469 15.515 26.704 0 48.469-6.947 48.469-15.515 0-8.567-21.765-15.514-48.469-15.514Z"/>
    <path fill="#F5F5F5" d="M231 307.983c-22.768 0-40.674-6.329-40.674-14.434s17.829-14.434 40.674-14.434 40.674 6.329 40.674 14.434-17.829 14.434-40.674 14.434Zm0-28.019c-21.996 0-39.825 6.098-39.825 13.662 0 7.564 17.906 13.662 39.825 13.662 21.919 0 39.825-6.098 39.825-13.662 0-7.564-17.906-13.662-39.825-13.662Z"/>
    <path fill="#F5F5F5" d="M231 313c-17.983 0-32.029-5.558-32.029-12.582 0-7.024 14.046-12.581 32.029-12.581 17.983 0 32.03 5.557 32.03 12.581 0 7.024-14.047 12.582-32.03 12.582Zm0-24.391c-17.211 0-31.18 5.249-31.18 11.809 0 6.561 13.969 11.81 31.18 11.81 17.212 0 31.181-5.249 31.181-11.81 0-6.56-13.969-11.809-31.181-11.809Z"/>
  </g>
  <defs>
    <clipPath id="a">
      <path fill="#fff" d="M0 0h461.701v400H0z"/>
    </clipPath>
  </defs>
</svg>
