<svg xmlns="http://www.w3.org/2000/svg" width="400" height="400" fill="none" viewBox="0 0 400 400">
  <g clip-path="url(#a)">
    <path fill="#E7E7E7" d="M199.807 399.998c-50.143 0-97.803-18.529-134.957-52.627C25.404 311.268 2.48 261.985.189 208.594-2.103 155.203 16.521 104.2 52.624 64.754 88.728 25.404 138.012 2.481 191.306.19c53.391-2.292 104.394 16.332 143.84 52.435 39.351 36.104 62.273 85.387 64.661 138.778 2.292 53.391-16.332 104.393-52.436 143.839-36.103 39.351-85.386 62.274-138.777 64.661-2.961.096-5.922.191-8.883.191l.096-.095Zm.382-398.95c-2.961 0-5.826 0-8.787.192C138.298 3.532 89.301 26.359 53.389 65.519 17.38 104.678-1.148 155.49 1.144 208.594c2.292 53.104 25.12 102.101 64.279 138.013 39.159 35.912 89.971 54.442 143.075 52.149 53.105-2.292 102.102-25.119 138.014-64.279 35.912-39.159 54.441-89.971 52.149-143.075-2.292-53.104-25.12-102.101-64.279-138.013-36.867-34.002-84.336-52.34-134.193-52.34Z"/>
    <path fill="#E7E7E7" d="M6.78 250.239s-.477-.191-.477-.382c-.191-.955-.287-2.006-.478-3.057-1.146-6.972-2.674-16.428-2.101-28.94 2.77-57.306 34.766-117.669 83.381-157.688C120.916 32.378 153.39 12.607 201.91 6.304c20.822-2.675 37.823-2.197 53.582 1.432.287 0 .478.287.382.573 0 .287-.287.478-.573.382-15.664-3.629-32.569-4.107-53.2-1.432-48.328 6.208-80.611 25.979-114.326 53.581-48.52 39.924-80.325 100.096-83 157.02-.572 12.417.956 21.872 2.102 28.749.19 1.051.382 2.102.477 3.057 0 .286-.19.573-.382.573h-.19Z"/>
    <path fill="#E7E7E7" d="M.573 193.887c-.286 0-.477-.286-.477-.573C3.534 142.12 29.322 91.882 70.869 55.397 92.073 36.772 135.435 4.87 187.202.287c.286 0 .477.19.573.477 0 .287-.191.478-.478.573-51.48 4.49-94.651 36.294-115.76 54.823C30.183 92.456 4.49 142.502 1.148 193.41c0 .286-.192.477-.478.477H.573Z"/>
    <path fill="#E7E7E7" d="M30.66 306.017s-.382 0-.478-.286c-.19-.287-14.326-25.12-14.326-63.897 0-35.721 12.511-91.022 71.824-151.385 56.638-57.498 112.13-71.347 148.615-72.78 39.637-1.623 66.284 10.602 66.571 10.793.287.096.382.382.287.669-.096.286-.383.382-.669.286-.287-.095-26.743-12.225-66.094-10.697-36.389 1.433-91.499 15.186-147.85 72.493-59.027 60.076-71.538 115.091-71.538 150.621 0 38.491 14.04 63.132 14.135 63.419.096.191 0 .573-.19.669h-.287v.095Z"/>
    <path fill="#E7E7E7" d="M63.898 346.227s-.287 0-.383-.191c-24.45-28.271-32.95-66.189-24.546-109.646 6.4-33.143 22.159-66.763 45.654-97.326 24.26-31.519 55.206-57.498 89.399-75.263 59.217-30.659 103.916-27.984 130.945-20.343 29.322 8.309 44.89 24.068 45.081 24.26a.46.46 0 0 1 0 .668.461.461 0 0 1-.668 0c-.191-.191-15.568-15.76-44.699-23.973-26.839-7.546-71.251-10.22-130.182 20.248C106.018 100.095 53.2 167.526 39.924 236.485c-8.31 43.171.096 80.802 24.356 108.883.19.191.19.573 0 .668 0 0-.191.096-.287.096l-.095.095Z"/>
    <path fill="#E7E7E7" d="M113.181 380.038h-.287c-48.424-31.614-52.913-78.796-48.233-112.703 11.27-80.515 85.196-166.189 164.852-190.926 62.751-19.484 101.528-6.017 122.923 8.787 23.209 15.95 31.709 36.867 31.805 37.154.095.286 0 .573-.287.668-.286.096-.573 0-.668-.286 0-.191-8.501-20.917-31.519-36.677-21.203-14.613-59.694-27.984-122.063-8.596C150.43 102.102 76.791 187.298 65.52 267.526c-4.68 33.716-.286 80.421 47.756 111.748.191.191.287.478.191.669-.095.191-.286.191-.382.191l.096-.096Z"/>
    <path fill="#E7E7E7" d="M162.943 396.466h-.191c-43.935-15.282-67.622-49.188-66.763-95.606.669-36.581 17.001-78.128 44.7-114.136 29.13-37.822 67.526-65.52 108.118-77.841 44.604-13.563 80.898-11.844 107.927 5.062 34.862 21.776 41.643 61.795 41.739 62.177 0 .287-.096.573-.382.573-.287 0-.573-.095-.573-.382 0-.382-6.782-40.019-41.261-61.509-26.839-16.714-62.846-18.433-107.068-4.966-89.303 27.125-150.716 120.63-152.053 191.022-.86 45.94 22.54 79.56 66.093 94.651.287 0 .382.382.287.669 0 .191-.287.382-.478.382l-.095-.096Z"/>
    <path fill="#E7E7E7" d="M221.107 397.23c-29.322 0-53.581-9.837-69.245-28.558-19.866-23.686-23.973-59.025-11.461-99.522 14.04-45.559 52.053-89.112 99.14-113.754 35.626-18.624 71.442-23.686 100.86-14.326 36.962 11.748 49.856 39.159 54.154 60.076 4.68 22.636.478 42.789.478 42.98 0 .287-.287.478-.573.382-.287 0-.478-.286-.382-.573 0-.191 4.107-20.153-.478-42.598-4.298-20.63-17.001-47.66-53.486-59.312-29.226-9.265-64.756-4.203-100.096 14.231-46.895 24.451-84.622 67.813-98.662 113.085-12.417 40.115-8.405 75.167 11.27 98.567 18.625 22.159 49.284 31.806 86.437 27.125.287 0 .478.191.573.478 0 .287-.191.573-.477.573-6.208.764-12.226 1.146-18.052 1.146Z"/>
    <path fill="#E7E7E7" d="M242.98 386.82c-2.293 0-4.489 0-6.686-.287-20.153-1.528-37.345-10.029-49.475-24.642-29.513-35.243-12.798-102.292 36.39-146.323 29.799-26.743 66.284-41.356 97.612-39.255 20.153 1.337 37.154 9.456 49.093 23.496 30.277 35.53 13.371 103.056-36.963 147.373-29.226 25.788-60.936 39.638-89.876 39.638h-.095Zm71.728-209.743c-29.704 0-63.228 14.327-90.926 39.255-48.806 43.744-65.425 110.125-36.294 144.986 12.034 14.422 28.94 22.827 48.806 24.26 30.468 2.292 64.565-11.557 95.893-39.16 49.952-43.935 66.762-110.792 36.867-145.94-11.748-13.754-28.462-21.777-48.328-23.114-2.006-.096-4.012-.191-6.018-.191v-.096Z"/>
    <path fill="#E7E7E7" d="M264.088 368.099c-1.623 0-3.247 0-4.871-.191-14.517-1.146-26.934-7.259-35.721-17.86-21.203-25.406-9.36-73.544 25.979-105.253 21.395-19.103 47.565-29.609 70.01-28.176 14.517.955 26.838 6.877 35.434 17.001 21.777 25.597 9.742 74.116-26.361 105.922-20.917 18.433-43.648 28.462-64.47 28.462v.095Zm51.099-150.525c-21.204 0-45.177 10.22-65.043 27.985-34.957 31.327-46.801 78.796-25.884 103.82 8.596 10.315 20.726 16.333 35.053 17.479 21.776 1.623 46.132-8.31 68.577-27.985 35.721-31.423 47.755-79.274 26.265-104.489-8.405-9.933-20.439-15.664-34.766-16.619-1.433 0-2.865-.095-4.298-.095l.096-.096Z"/>
    <path fill="#E7E7E7" d="M282.044 341.834c-.86 0-1.815 0-2.674-.096-8.119-.573-14.996-4.011-19.962-9.933-11.844-14.135-5.158-41.07 14.517-58.739 11.939-10.697 26.553-16.619 39.16-15.759 8.118.573 14.995 3.82 19.771 9.455 12.13 14.327 5.444 41.356-14.804 59.121-11.748 10.316-24.356 15.855-36.008 15.855v.096Zm28.558-83.572c-11.748 0-25.024 5.73-36.008 15.568-19.293 17.287-25.979 43.553-14.422 57.307 4.775 5.635 11.366 8.978 19.198 9.551 12.034.955 25.597-4.585 38.013-15.569 19.771-17.383 26.457-43.839 14.709-57.688-4.585-5.444-11.175-8.596-19.103-9.074h-2.387v-.095Z"/>
  </g>
  <defs>
    <clipPath id="a">
      <path fill="#fff" d="M0 0h400v400H0z"/>
    </clipPath>
  </defs>
</svg>
