<svg xmlns="http://www.w3.org/2000/svg" width="400" height="400" fill="none" viewBox="0 0 400 400">
  <g clip-path="url(#a)">
    <path fill="#F5F5F5" d="M199.97 338.877C88.538 338.877-2 301.581-2 255.67c0-45.911 90.63-83.207 201.97-83.207s201.97 37.296 201.97 83.207c0 45.911-90.63 83.207-201.97 83.207Zm0-165.406c-110.79 0-201.054 36.93-201.054 82.199s90.172 82.199 201.054 82.199 201.054-36.93 201.054-82.199-90.172-82.199-201.054-82.199Z"/>
    <path fill="#F5F5F5" d="M178.71 333.471c-42.978 0-83.024-5.957-114.73-17.136-37.48-13.288-58.65-32.349-59.75-53.792-2.2-44.078 83.024-84.124 189.966-89.347 51.684-2.566 100.802 3.391 138.098 16.586 37.48 13.288 58.649 32.349 59.748 53.792 2.2 44.078-83.024 84.124-189.965 89.347-7.881.367-15.671.55-23.368.55Zm38.854-159.909c-7.697 0-15.486.184-23.367.55-106.3 5.224-191.157 44.903-188.958 88.431 1.008 20.985 21.993 39.771 59.107 52.967 37.205 13.196 86.139 19.06 137.732 16.495 106.391-5.224 191.157-44.811 189.049-88.339-1.008-20.986-21.993-39.771-59.107-52.967-31.523-11.18-71.477-17.137-114.364-17.137h-.092Z"/>
    <path fill="#F5F5F5" d="M159.099 329.255c-81.741 0-144.971-24.009-148.637-59.839-2.107-20.527 15.304-41.787 49.027-59.84 33.54-17.961 79.358-30.699 128.934-35.739 49.576-5.04 96.953-1.924 133.517 8.889 36.655 10.814 58.007 28.133 60.114 48.66 2.108 20.527-15.303 41.787-49.026 59.84-33.539 17.961-79.358 30.698-128.935 35.739a448.686 448.686 0 0 1-44.994 2.29Zm74.777-156.792c-14.754 0-29.966.825-45.361 2.382-49.393 5.04-95.12 17.687-128.568 35.648-33.357 17.869-50.584 38.762-48.477 58.831 3.574 35.372 66.346 59.015 147.446 59.015 14.479 0 29.599-.733 45.086-2.383 49.393-5.04 95.12-17.686 128.568-35.647 33.356-17.869 50.584-38.763 48.476-58.831-2.016-20.069-23.184-37.114-59.473-47.835-25.017-7.423-55.257-11.18-87.789-11.18h.092Z"/>
    <path fill="#F5F5F5" d="M141.047 326.323c-67.996 0-119.313-19.061-124.353-50.034-3.116-19.611 12.463-41.054 43.895-60.207 31.34-19.152 74.684-33.906 122.061-41.512 47.377-7.606 93.196-7.147 128.935 1.192 35.831 8.43 57.365 23.826 60.481 43.528 6.506 40.32-67.995 85.956-165.956 101.718-22.635 3.665-44.628 5.315-65.063 5.315ZM248.172 170.08c-20.802 0-42.887 1.833-65.338 5.407-47.286 7.606-90.447 22.268-121.696 41.329-31.065 18.969-46.46 40.045-43.436 59.289 6.414 39.863 90.905 59.565 188.316 43.895 97.411-15.67 171.546-60.756 165.132-100.619-3.116-19.244-24.284-34.364-59.748-42.703-18.694-4.399-40.138-6.598-63.23-6.598Z"/>
    <path fill="#F5F5F5" d="M125.561 324.674c-55.533 0-96.587-15.029-102.543-41.513-4.216-18.785 9.53-40.32 38.67-60.664 29.05-20.344 69.921-37.113 115.19-47.193 45.177-10.172 89.347-12.463 124.261-6.507 35.097 5.957 56.724 19.611 60.939 38.305 4.216 18.786-9.53 40.321-38.671 60.664-29.049 20.344-69.92 37.114-115.189 47.194-29.232 6.598-57.457 9.622-82.657 9.622v.092ZM259.81 166.415c-25.75 0-53.974 3.299-82.657 9.713-45.086 10.08-85.865 26.85-114.823 47.102-28.866 20.161-42.428 41.329-38.304 59.657 8.522 38.029 91.088 51.958 184.1 31.157 45.086-10.081 85.865-26.85 114.823-47.102 28.866-20.161 42.428-41.329 38.305-59.657-4.124-18.327-25.476-31.707-60.115-37.571-12.646-2.2-26.575-3.208-41.237-3.208l-.092-.091Z"/>
    <path fill="#F5F5F5" d="M113.006 324.215c-44.536 0-77.16-11.913-83.757-34.181-10.813-36.655 52.783-87.88 141.855-114.089 88.981-26.208 170.264-17.686 180.986 18.969 10.813 36.655-52.784 87.881-141.856 114.089-34.914 10.264-68.545 15.212-97.32 15.212h.092Zm155.601-162.566c-28.682 0-62.314 4.949-97.228 15.212-88.522 26.026-151.844 76.701-141.214 112.898 10.63 36.197 91.363 44.445 179.794 18.328 88.522-26.025 151.844-76.701 141.214-112.898-6.414-21.901-38.579-33.54-82.566-33.54Z"/>
    <path fill="#F5F5F5" d="M103.567 324.948c-2.108 0-4.307 0-6.323-.091-33.448-1.1-55.441-11.088-61.673-28.041-12.92-34.823 45.27-88.798 129.76-120.229 40.87-15.212 81.741-23.002 115.097-21.902 33.448 1.1 55.441 11.088 61.673 28.041 6.323 16.953-3.758 38.855-28.408 61.581-24.468 22.635-60.481 43.436-101.444 58.74-38.304 14.296-76.609 21.993-108.774 21.993l.092-.092Zm170.538-169.347c-31.982 0-70.195 7.698-108.408 21.902-84.032 31.248-142.039 84.673-129.21 119.038 6.14 16.586 27.767 26.3 60.848 27.399 33.173 1.1 73.952-6.689 114.731-21.809 40.779-15.212 76.701-35.922 101.077-58.465 24.284-22.452 34.273-43.987 28.133-60.482-6.14-16.586-27.767-26.3-60.848-27.399-2.108 0-4.215-.092-6.323-.092v-.092Z"/>
    <path fill="#F5F5F5" d="M97.152 326.69c-28.957 0-48.568-8.065-55.35-23.002-15.12-32.989 37.664-89.713 117.756-126.46 38.763-17.778 77.984-28.225 110.515-29.599 32.715-1.283 54.708 6.781 62.131 22.818 15.12 32.989-37.663 89.713-117.755 126.46-38.763 17.778-77.984 28.225-110.515 29.599-2.291.092-4.582.184-6.782.184Zm179.702-178.145c-2.199 0-4.398 0-6.689.183-32.44 1.283-71.569 11.822-110.149 29.508-79.542 36.472-132.142 92.646-117.297 125.178 7.148 15.67 28.958 23.642 61.215 22.268 32.439-1.283 71.569-11.822 110.148-29.508 79.542-36.472 132.142-92.646 117.297-125.177-6.689-14.571-25.933-22.452-54.433-22.452h-.092Z"/>
    <path fill="#F5F5F5" d="M93.579 329.347c-22.726 0-38.671-6.415-45.453-18.786-8.43-15.12-2.016-37.296 18.053-62.405 19.977-24.926 51.134-49.851 87.606-70.195 36.564-20.252 74.135-33.539 105.934-37.297 31.89-3.757 54.066 2.566 62.497 17.686 17.319 31.157-30.149 90.63-105.659 132.601-36.563 20.252-74.135 33.539-105.933 37.296-6.049.733-11.73 1.1-17.045 1.1Zm183.184-188.774c-5.315 0-10.905.366-16.953 1.099-31.615 3.758-69.095 16.953-105.567 37.114-36.472 20.252-67.445 45.086-87.33 69.92-19.795 24.742-26.21 46.552-17.962 61.305 8.248 14.754 30.057 20.894 61.581 17.228 31.615-3.757 69.095-16.953 105.567-37.113 75.143-41.695 122.337-100.619 105.292-131.317-6.69-12.005-22.268-18.236-44.628-18.236Z"/>
    <path fill="#F5F5F5" d="M92.205 332.646c-18.053 0-31.157-5.132-37.847-15.212-9.439-14.295-4.857-36.563 12.921-62.864 17.686-26.116 46.369-53.058 80.733-75.876 71.111-47.193 144.788-61.764 164.216-32.44 9.438 14.296 4.856 36.564-12.921 62.864-17.687 26.117-46.369 53.058-80.734 75.876-34.364 22.818-70.378 38.763-101.351 44.995-9.164 1.832-17.595 2.749-25.109 2.749l.092-.092Zm182.084-200.687c-32.531 0-79.633 16.861-125.819 47.468-34.272 22.727-62.863 49.668-80.458 75.693-17.503 25.934-22.085 47.835-12.92 61.764 9.255 13.929 31.248 18.236 61.947 12.097 30.79-6.14 66.712-22.085 100.985-44.811 34.272-22.727 62.863-49.668 80.458-75.693 17.503-25.934 22.085-47.836 12.921-61.764-6.69-9.989-19.794-14.754-37.114-14.754Z"/>
    <path fill="#F5F5F5" d="M92.48 336.495c-14.204 0-25.293-3.941-31.799-12.28-21.627-27.491 14.937-92.462 81.558-144.879 66.621-52.417 138.373-72.761 160-45.27 21.627 27.492-14.937 92.463-81.558 144.88-46.46 36.564-95.487 57.549-128.202 57.549Zm177.777-213.792c-32.44 0-81.191 20.894-127.468 57.457-66.163 52.142-102.726 116.472-81.375 143.597 21.26 27.033 92.463 6.69 158.626-45.452 66.162-52.142 102.726-116.472 81.374-143.597-6.414-8.156-17.228-11.913-31.157-11.913v-.092Z"/>
    <path fill="#F5F5F5" d="M94.037 341.077c-11.73 0-20.985-3.299-27.216-9.989-11.547-12.463-10.63-35.097 2.566-63.688 13.195-28.5 36.93-59.473 66.987-87.423 30.057-27.95 62.772-49.301 92.096-60.298 29.508-11.088 52.142-10.263 63.689 2.2 23.825 25.567-7.423 93.379-69.554 151.019-30.057 27.858-62.772 49.301-92.096 60.298-13.837 5.223-26.117 7.789-36.472 7.789v.092Zm170.997-228.179c-10.264 0-22.452 2.566-36.197 7.698-29.233 10.996-61.856 32.348-91.822 60.114-29.965 27.858-53.7 58.74-66.804 87.056-13.012 28.225-14.02 50.493-2.749 62.589 11.272 12.188 33.54 12.829 62.681 1.924 29.232-10.996 61.855-32.348 91.821-60.114 61.764-57.365 92.921-124.445 69.461-149.737-5.956-6.414-15.028-9.622-26.483-9.622l.092.092Z"/>
    <path fill="#F5F5F5" d="M96.602 345.934c-9.713 0-17.594-2.658-23.367-7.973-12.646-11.546-13.563-34.364-2.658-64.055 10.905-29.599 32.257-62.68 60.115-93.104 27.858-30.424 58.923-54.616 87.514-67.996 28.683-13.47 51.409-14.57 64.055-3.024 25.934 23.735.183 94.296-57.457 157.251-27.858 30.424-58.923 54.616-87.514 67.996-15.487 7.331-29.325 10.996-40.688 10.996v-.091Zm162.2-243.208c-11.18 0-24.834 3.666-40.229 10.905-28.408 13.379-59.382 37.48-87.24 67.812-27.766 30.332-49.026 63.322-59.931 92.83-10.813 29.415-9.897 51.775 2.382 63.047 12.28 11.271 34.731 10.171 63.047-3.208 28.408-13.379 59.382-37.48 87.24-67.812 57.274-62.497 83.116-132.417 57.549-155.876-5.59-5.132-13.38-7.698-22.727-7.698h-.091Z"/>
    <path fill="#F5F5F5" d="M99.626 351.065c-7.88 0-14.754-2.016-20.16-6.231-13.654-10.63-16.403-33.54-7.79-64.513 8.615-30.791 27.492-65.888 53.242-98.878 53.15-68.178 119.221-105.842 147.354-83.94 13.654 10.63 16.403 33.539 7.79 64.513-8.614 30.79-27.492 65.888-53.242 98.878-42.887 54.982-94.204 90.171-127.194 90.171ZM251.93 92.279c-32.624 0-83.574 35.006-126.278 89.806-25.658 32.898-44.444 67.904-53.058 98.511-8.522 30.515-5.865 53.058 7.423 63.505 27.674 21.626 93.196-15.945 145.979-83.757 25.659-32.898 44.444-67.904 53.058-98.511 8.523-30.516 5.865-53.059-7.422-63.505-5.315-4.124-12.005-6.14-19.702-6.14v.091Z"/>
    <path fill="#F5F5F5" d="M103.475 356.655c-6.781 0-12.737-1.649-17.778-4.948-14.753-9.714-19.335-32.807-12.92-64.88 6.323-31.982 22.817-69.095 46.277-104.559 48.659-73.402 112.806-116.838 143.138-96.77 30.241 20.069 15.304 96.129-33.356 169.531-23.551 35.464-51.317 65.154-78.259 83.39-17.869 12.096-33.998 18.328-47.102 18.328v-.092ZM244.506 81.466c-33.081 0-84.215 40.229-124.628 101.26-23.459 35.372-39.862 72.394-46.185 104.284-6.323 31.707-1.833 54.342 12.554 63.872 14.387 9.53 37.022 4.765 63.78-13.379 26.85-18.236 54.525-47.744 77.984-83.116 48.385-72.944 63.414-148.453 33.631-168.156-4.856-3.207-10.721-4.765-17.136-4.765Z"/>
    <path fill="#F5F5F5" d="M107.508 362.428c-5.682 0-10.905-1.282-15.487-3.848-15.762-8.889-22.177-32.074-18.145-65.338 4.032-33.082 18.053-72.303 39.405-110.332 21.351-38.03 47.56-70.378 73.677-91.089 26.3-20.802 49.393-27.4 65.154-18.51 15.762 8.888 22.177 32.073 18.145 65.337-4.032 33.082-18.053 72.303-39.405 110.333-21.351 38.029-47.56 70.378-73.677 91.088-18.602 14.753-35.738 22.359-49.667 22.359Zm129.209-292.05c-13.746 0-30.607 7.514-49.118 22.176-26.025 20.619-52.142 52.876-73.402 90.814-21.26 37.938-35.28 76.976-39.313 109.965-4.032 32.807 2.2 55.716 17.686 64.33 15.396 8.614 38.214 2.108 64.147-18.419 26.025-20.619 52.142-52.875 73.402-90.813 21.26-37.938 35.281-76.976 39.313-109.966 4.032-32.806-2.199-55.716-17.686-64.33-4.399-2.474-9.531-3.757-15.029-3.757Z"/>
    <path fill="#F5F5F5" d="M111.631 368.293c-4.766 0-9.256-.916-13.38-2.84-34.547-16.312-30.423-97.87 9.256-181.81 39.679-83.85 100.069-138.832 134.616-122.429 34.548 16.312 30.424 97.87-9.255 181.81-34.914 73.952-86.048 125.361-121.329 125.361l.092-.092ZM228.744 59.198c-34.822 0-85.498 51.226-120.321 124.811C69.019 267.4 64.62 348.408 98.71 364.536c4.032 1.925 8.43 2.841 13.012 2.841 34.823 0 85.499-51.226 120.321-124.811 39.404-83.391 43.803-164.399 9.714-180.527-4.032-1.924-8.431-2.84-13.105-2.84h.092Z"/>
    <path fill="#F5F5F5" d="M116.305 374.433c-4.123 0-8.064-.733-11.729-2.199-36.747-14.479-37.938-98.786-2.749-187.95 17.044-43.07 39.954-80.916 64.513-106.483 24.65-25.659 48.11-35.922 65.979-28.866 17.87 7.056 27.95 30.515 28.408 66.071.458 35.464-8.614 78.717-25.659 121.787-17.044 43.07-39.954 80.916-64.513 106.483-19.61 20.344-38.396 31.065-54.25 31.065v.092Zm104.101-326.69c-15.578 0-34.089 10.539-53.516 30.7-24.468 25.474-47.286 63.138-64.239 106.116-35.005 88.614-33.997 172.371 2.291 186.667 17.503 6.872 40.504-3.299 64.88-28.591 24.467-25.476 47.285-63.139 64.238-106.117 16.953-42.979 26.026-86.14 25.567-121.421-.458-35.189-10.355-58.373-27.858-65.246a31.646 31.646 0 0 0-11.363-2.108Z"/>
    <path fill="#F5F5F5" d="M120.795 380.573c-3.391 0-6.69-.55-9.897-1.558-18.878-6.14-30.882-29.783-33.631-66.529-2.75-36.564 3.94-81.925 18.785-127.561 30.699-94.295 87.24-160.733 126.094-148.087 18.878 6.14 30.882 29.783 33.632 66.53 2.749 36.563-3.941 81.924-18.786 127.56-28.133 86.598-78.167 149.736-116.289 149.736l.092-.091Zm91.363-344.284c-37.663 0-87.24 62.863-115.28 149.095-14.846 45.544-21.444 90.721-18.695 127.193 2.75 36.289 14.387 59.657 32.898 65.705 38.396 12.463 94.387-53.7 124.994-147.537 14.846-45.545 21.444-90.722 18.695-127.194-2.75-36.289-14.388-59.656-32.899-65.704-3.115-1.008-6.414-1.558-9.713-1.558Z"/>
    <path fill="#F5F5F5" d="M125.56 386.987c-2.933 0-5.682-.366-8.522-1.099-19.977-5.224-33.723-29.05-38.763-66.896-5.04-37.755-.825-85.04 11.913-133.242 12.646-48.201 32.348-91.454 55.257-121.878 23.001-30.516 46.736-44.445 66.713-39.13 19.977 5.224 33.723 29.05 38.763 66.896 5.04 37.755.824 85.04-11.913 133.242-12.646 48.201-32.348 91.454-55.258 121.878-19.885 26.3-40.229 40.229-58.19 40.229Zm78.167-362.428c-17.686 0-37.755 13.837-57.457 39.862-22.909 30.333-42.428 73.494-55.074 121.513-12.646 48.018-16.862 95.211-11.822 132.875 4.949 37.48 18.511 60.939 38.03 66.162 19.519 5.132 42.887-8.614 65.705-38.854 22.909-30.332 42.428-73.494 55.074-121.512 12.646-48.019 16.861-95.212 11.821-132.875-4.948-37.48-18.511-60.94-38.029-66.163a30.877 30.877 0 0 0-8.248-1.1v.092Z"/>
    <path fill="#F5F5F5" d="M130.325 393.402c-2.383 0-4.674-.275-6.965-.733-20.985-4.307-36.563-28.225-43.894-67.354-7.331-38.946-5.499-88.247 5.04-139.015 10.538-50.676 28.499-96.678 50.675-129.484 22.268-32.898 46.094-48.66 67.079-44.353 43.162 8.98 60.665 101.535 38.947 206.277-10.539 50.676-28.5 96.678-50.676 129.484-19.794 29.325-40.871 45.086-60.115 45.086l-.091.092Zm64.879-380.573c-18.877 0-39.679 15.579-59.289 44.628-22.085 32.715-40.046 78.625-50.493 129.21-10.447 50.584-12.28 99.793-4.948 138.648 7.239 38.671 22.542 62.314 43.161 66.529 20.619 4.307 44.078-11.363 66.071-43.894 22.085-32.715 40.046-78.626 50.493-129.21 21.626-104.284 4.49-196.38-38.122-205.178-2.199-.458-4.49-.733-6.781-.733h-.092Z"/>
    <path fill="#F5F5F5" d="M135.09 400c-1.833 0-3.574-.183-5.406-.458-45.361-7.056-68.18-102.36-50.951-212.417C95.96 77.068 146.91-6.69 192.18.458c21.993 3.482 39.496 27.492 49.026 67.72 9.53 40.047 10.263 91.455 1.924 144.697C226.545 318.534 178.985 400 135.09 400ZM186.774.916c-43.436 0-90.63 81.1-107.125 186.392-17.136 109.508 5.315 204.353 50.126 211.317 44.811 7.057 95.212-76.334 112.348-185.933 8.339-53.15 7.698-104.376-1.832-144.33C230.76 28.5 213.624 4.765 191.997 1.375c-1.741-.275-3.573-.459-5.315-.459h.092Z"/>
  </g>
  <defs>
    <clipPath id="a">
      <path fill="#fff" d="M0 0h400v400H0z"/>
    </clipPath>
  </defs>
</svg>
