<svg xmlns="http://www.w3.org/2000/svg" width="400" height="400" fill="none" viewBox="0 0 400 400">
  <path fill="#F5F5F5" d="M200.425 273.522s-.374-.094-.468-.281l-33.746-69.736v-.373L214.727.374s.187-.374.467-.374c.187 0 .374 0 .468.28l33.746 69.736v.28l-48.516 202.758s-.187.374-.467.374v.094Zm-33.186-70.297 33.092 68.334 48.142-201.262-33.092-68.334-48.142 201.262Z"/>
  <path fill="#F5F5F5" d="M200.424 273.522s-.28 0-.373-.187c-.094-.094-.094-.281-.094-.468L248.473 70.11s.187-.374.467-.374l101.613-6.824s.28 0 .374.187c.093.187.093.28.093.467l-48.516 202.758s-.187.374-.467.374l-101.613 6.824Zm48.984-202.758-48.236 201.823 100.585-6.731 48.235-201.822-100.584 6.73Z"/>
  <path fill="#F5F5F5" d="M327.091 318.486s-.374-.094-.468-.281l-24.959-51.694v-.374L350.18 63.379s.187-.374.467-.374c.187 0 .374 0 .468.28l24.959 51.695v.374l-48.516 202.758s-.187.374-.467.374Zm-24.492-52.256 24.305 50.293 48.142-201.262-24.305-50.293-48.142 201.262Z"/>
  <path fill="#F5F5F5" d="M225.477 325.216s-.28 0-.374-.187c-.093-.093-.093-.28-.093-.467l48.516-202.758s.187-.374.467-.374l101.613-6.824s.28 0 .374.187c.093.094.093.281.093.468l-48.516 202.757s-.187.374-.467.374l-101.613 6.824Zm48.89-202.757-48.235 201.822 100.584-6.73 48.235-201.823-100.584 6.731Z"/>
  <path fill="#F5F5F5" d="M259.13 395.046s-.374-.094-.468-.281l-33.746-69.736v-.28l48.516-202.758s.187-.374.467-.374c.187 0 .374 0 .468.281l33.746 69.736v.373l-48.516 202.758s-.187.374-.467.374v-.093Zm-33.186-70.297 33.092 68.333 48.142-201.261-33.092-68.334-48.142 201.262Z"/>
  <path fill="#F5F5F5" d="M183.88 400s-.281 0-.374-.187c-.094-.093-.094-.28-.094-.467l48.516-202.758s.187-.374.468-.374l75.344-5.048s.281 0 .374.187c.094.094.094.281.094.467l-48.516 202.758s-.187.374-.468.374L183.88 400Zm48.889-202.758-48.235 201.823 74.316-4.954 48.236-201.823-74.317 4.954Z"/>
  <path fill="#F5F5F5" d="M183.88 400s-.374-.094-.468-.28l-33.746-69.736v-.374l48.516-202.758s.187-.374.467-.374c.187 0 .374 0 .468.281l33.746 69.736v.373l-48.516 202.758s-.187.374-.467.374Zm-33.279-70.297 33.092 68.334 48.142-201.262-33.092-68.334-48.142 201.262Z"/>
  <path fill="#F5F5F5" d="M48.52 337.088s-.28 0-.374-.187c-.093-.093-.093-.28-.093-.467l48.422-202.758s.187-.374.468-.374l101.612-6.824s.281 0 .374.187c.094.094.094.281.094.468L150.507 329.89s-.187.374-.468.374l-101.612 6.824h.093Zm48.89-202.851L49.175 336.06l100.584-6.731 48.235-201.823-100.584 6.731Z"/>
  <path fill="#F5F5F5" d="M48.52 337.088s-.374-.093-.467-.28L23 285.113v-.374L71.516 81.982s.187-.374.467-.374c.187 0 .374 0 .468.28l24.959 51.695v.374L48.894 336.714s-.187.374-.468.374h.094Zm-24.492-52.255 24.305 50.292L96.475 133.77 72.17 83.477 24.028 284.834Z"/>
  <path fill="#F5F5F5" d="M23.467 285.394s-.28 0-.373-.187c-.094-.094-.094-.281-.094-.468L71.516 81.982s.187-.374.467-.374l101.613-6.824s.28 0 .374.187c.093.093.093.28.093.467l-48.516 202.758s-.187.374-.467.374l-101.52 6.824h-.093Zm48.89-202.851L24.122 284.365l100.584-6.73 48.236-201.823-100.585 6.73Z"/>
  <path fill="#F5F5F5" d="M125.173 278.57s-.374-.094-.468-.281l-33.746-69.736v-.374L139.475 5.422s.187-.374.467-.374c.187 0 .374 0 .468.28l33.746 69.736v.374L125.64 278.196s-.187.374-.467.374Zm-33.28-70.297 33.093 68.334 48.142-201.262L140.129 7.01 91.987 208.273h-.093Z"/>
  <path fill="#F5F5F5" d="M91.426 208.834s-.28 0-.374-.187c-.093-.094-.093-.281-.093-.468L139.475 5.422s.187-.374.467-.374L215.194 0s.28 0 .374.187c.093.093.093.28.093.467l-48.516 202.758s-.187.374-.467.374l-75.345 5.048h.093Zm48.89-202.851L92.081 207.806l74.316-4.955L214.633 1.028l-74.317 4.955Z"/>
</svg>
