<svg xmlns="http://www.w3.org/2000/svg" width="400" height="400" fill="none" viewBox="0 0 400 400">
  <g clip-path="url(#a)">
    <path fill="#E7E7E7" d="M200 203.946h-.068L.27 153.811s-.27-.203-.27-.338.135-.338.27-.338L199.932 103h.203l199.662 50.135s.271.203.271.338-.136.338-.271.338l-199.662 50.135H200ZM1.824 153.473 200 203.203l198.176-49.73L200 103.743 1.824 153.473Z"/>
    <path fill="#E7E7E7" d="M200 234.757h-.068L.27 184.622s-.27-.203-.27-.338.135-.338.27-.338l61.42-15.405s.405.067.405.27c0 .202 0 .405-.27.405l-60 15.068L200 234.013l198.176-49.729-60-15.068s-.338-.27-.271-.405c.068-.135.271-.338.406-.27l61.419 15.405s.27.203.27.338-.135.338-.27.338l-199.662 50.135H200Z"/>
    <path fill="#E7E7E7" d="M200 265.568h-.068L.27 215.432s-.27-.202-.27-.337c0-.136.135-.338.27-.338l61.42-15.406s.405.068.405.271c0 .202 0 .405-.27.405l-60 15.068L200 264.824l198.176-49.729-60-15.068s-.338-.27-.271-.405c0-.203.271-.338.406-.271l61.419 15.406s.27.202.27.338c0 .135-.135.27-.27.337l-199.662 50.136H200Z"/>
    <path fill="#E7E7E7" d="M200 296.243h-.068L.27 246.108s-.27-.203-.27-.338.135-.338.27-.338l61.081-15.337s.406 0 .406.27c0 .203 0 .405-.27.405l-59.663 15L200 295.5l198.176-49.73-59.662-15s-.338-.27-.271-.405c0-.203.271-.27.406-.27l61.081 15.337s.27.203.27.338-.135.338-.27.338l-199.662 50.135H200Zm187.161-139.257h-.067l-199.662-50.135s-.338-.27-.271-.405c0-.203.271-.338.406-.27l199.662 50.135s.338.27.27.405c0 .135-.203.27-.338.27Zm-12.5 3.109h-.067l-199.662-50.136s-.338-.27-.271-.405c0-.203.271-.27.406-.27l199.662 50.135s.338.27.27.405c0 .135-.203.271-.338.271Zm-12.431 3.108h-.068L162.5 113.068s-.338-.271-.27-.406c0-.203.27-.338.405-.27l199.662 50.135s.338.27.27.405c0 .136-.202.271-.337.271Zm-12.5 3.175h-.068L150 116.243s-.338-.27-.27-.405c0-.203.27-.27.405-.27l199.662 50.135s.338.27.27.405c0 .135-.202.27-.337.27Zm-12.5 3.108h-.068L137.5 119.351s-.338-.27-.27-.405c0-.203.27-.338.405-.27l199.662 50.135s.338.27.27.405c0 .135-.202.27-.337.27Zm-12.432 3.109h-.068l-199.662-50.136s-.338-.27-.27-.405c0-.203.27-.338.405-.27l199.663 50.135s.337.27.27.405c0 .135-.203.271-.338.271Zm-12.5 3.175h-.068l-199.662-50.135s-.338-.27-.27-.405c0-.203.27-.271.405-.271l199.663 50.136s.337.27.27.405c0 .135-.203.27-.338.27Zm-12.5 3.108h-.068l-199.662-50.135s-.338-.27-.27-.405c0-.203.27-.338.405-.27l199.663 50.135s.337.27.27.405c0 .135-.203.27-.338.27Zm-12.434 3.109h-.067L87.635 131.919s-.338-.27-.27-.405c0-.203.27-.271.405-.271l199.662 50.135s.338.271.27.406c0 .135-.202.27-.338.27v-.067Zm-12.5 3.175h-.067L75.135 135.027s-.338-.27-.27-.405c0-.203.27-.338.405-.271l199.662 50.135s.338.271.27.406c0 .135-.202.27-.338.27Zm-12.5 3.108h-.067L62.635 138.135s-.338-.27-.27-.405c0-.203.27-.338.405-.271l199.662 50.136s.338.27.27.405c0 .135-.202.27-.338.27Zm-12.431 3.108h-.068L50.203 141.311s-.338-.27-.27-.406c0-.202.27-.337.405-.27L250 190.77s.338.271.271.406c0 .135-.203.27-.338.27v-.068Zm-12.5 3.176h-.068L37.703 144.419s-.338-.27-.27-.405c0-.203.27-.338.405-.271L237.5 193.878s.338.271.271.406c0 .135-.203.27-.338.27Zm-12.5 3.108h-.068L25.203 147.527s-.338-.27-.27-.405c0-.203.27-.271.405-.271L225 196.986s.338.271.271.406c0 .135-.203.27-.338.27Zm-12.434 3.176h-.067L12.769 150.703s-.337-.271-.27-.406c0-.202.27-.338.406-.27l199.662 50.135s.338.27.27.406c0 .135-.203.27-.338.27Z"/>
    <path fill="#E7E7E7" d="M200 296.243s-.27-.135-.338-.27c0-.203 0-.405.27-.405l199.663-50.136s.405.068.405.271c0 .202-.068.405-.27.405l-199.662 50.135H200Zm-12.5-3.108s-.27-.135-.338-.27c0-.203 0-.406.27-.406l199.663-50.135s.405.068.405.271c0 .202-.068.405-.27.405l-199.662 50.135h-.068Zm-12.432-3.176s-.27-.135-.338-.27c0-.202 0-.405.271-.405l199.662-50.135s.405.067.405.27-.067.405-.27.405l-199.662 50.135h-.068Zm-12.5-3.108s-.27-.135-.338-.27c0-.203 0-.405.271-.405l199.662-50.135s.405.067.405.27c0 .202 0 .405-.27.405l-199.662 50.135h-.068Zm-12.5-3.108s-.27-.135-.338-.27c0-.203 0-.405.271-.405l199.662-50.136s.405.068.405.271c0 .202 0 .405-.27.405l-199.662 50.135h-.068Zm-12.433-3.175s-.271-.136-.338-.271c0-.202 0-.405.27-.405l61.081-15.338s.406.068.406.27c0 .203 0 .406-.271.406l-61.081 15.338h-.067Zm-12.5-3.109s-.271-.135-.338-.27c0-.203 0-.405.27-.405l61.081-15.338s.406.067.406.27 0 .406-.271.406l-61.081 15.337h-.067Zm-12.5-3.175s-.271-.135-.338-.27c0-.203 0-.406.27-.406l61.081-15.338s.406.068.406.271c0 .202 0 .405-.271.405l-61.081 15.338h-.067Zm-12.432-3.108s-.27-.136-.338-.271c0-.202 0-.405.271-.405l61.081-15.338s.405.068.405.27c0 .203 0 .406-.27.406l-61.081 15.338h-.068Zm-12.5-3.108s-.27-.136-.338-.271c0-.202.068-.405.27-.405l61.082-15.338s.405.068.405.27c0 .203-.068.406-.27.406l-61.081 15.338h-.068Zm-12.5-3.176s-.27-.135-.338-.27c0-.203 0-.406.27-.406l61.082-15.338s.405.068.405.271c0 .202 0 .405-.27.405l-61.081 15.338h-.068Zm-12.433-3.108s-.27-.135-.338-.27c0-.203 0-.406.27-.406l61.081-15.338s.405.068.405.271c0 .202 0 .405-.27.405l-61.081 15.338h-.068Zm-12.5-3.108s-.27-.136-.338-.271c0-.202.067-.405.27-.405l61.081-15.338s.405.068.405.27c0 .203 0 .406-.27.406l-61.081 15.338h-.068Zm-12.5-3.176s-.27-.135-.338-.27c0-.203 0-.406.27-.406l61.081-15.338s.405.068.405.271c0 .202 0 .405-.27.405L37.837 255.5h-.068Zm-12.432-3.108s-.27-.135-.338-.27c0-.203 0-.406.27-.406l61.081-15.338s.406.068.406.271c0 .202 0 .405-.27.405l-61.082 15.338h-.067Zm-12.5-3.108s-.27-.135-.338-.27c0-.203 0-.406.27-.406l61.081-15.338s.406.068.406.271c0 .202 0 .405-.27.405l-61.082 15.338h-.067Z"/>
  </g>
  <defs>
    <clipPath id="a">
      <path fill="#fff" d="M0 0h400v400H0z"/>
    </clipPath>
  </defs>
</svg>
