<svg xmlns="http://www.w3.org/2000/svg" width="33" height="24" fill="none" viewBox="0 0 33 24">
  <path fill="#222F3E" stroke="#222F3E" d="M16.404 16.7c-.057.27-.099.507-.099.66 0 .21.049.419.162.608.113.187.274.328.457.43.07.038.146.073.226.102h-3.174c.205-.072.396-.169.568-.295.446-.326.715-.804.836-1.377l2.08-9.804v-.001a3.4 3.4 0 0 0 .09-.66c0-.21-.05-.42-.163-.608a1.203 1.203 0 0 0-.457-.43 1.64 1.64 0 0 0-.225-.102h3.076c-.218.075-.412.18-.577.322-.387.332-.617.802-.73 1.351v.001l-2.07 9.802Z"/>
</svg>
