<svg xmlns="http://www.w3.org/2000/svg" width="33" height="24" fill="none" viewBox="0 0 33 24">
  <path fill="#222F3E" stroke="#222F3E" d="m10.49 13.55-1.203 1.2a3.364 3.364 0 0 0 0 4.763 3.379 3.379 0 0 0 4.773 0l4.795-4.787a2.398 2.398 0 0 0 0-3.395L10.49 13.55Zm0 0 .853-.851a.47.47 0 0 1 .664 0l.353-.354-1.87 1.205Zm11.103-2.908 2.055-2.052-8.903 4.079a2.398 2.398 0 0 1 0-3.395l4.795-4.787a3.379 3.379 0 0 1 4.774 0 3.364 3.364 0 0 1 0 4.762L23.11 10.45l-.853.851a.47.47 0 0 1-.8-.33.47.47 0 0 1 .136-.33Zm2.055-2.052a2.432 2.432 0 0 0 0-3.443 2.44 2.44 0 0 0-3.446 0l-4.794 4.787a1.466 1.466 0 0 0 0 2.075.466.466 0 0 1 0 .66.47.47 0 0 1-.663 0l8.903-4.08Z"/>
</svg>
