<svg xmlns="http://www.w3.org/2000/svg" width="25" height="24" fill="none" viewBox="0 0 25 24">
  <path fill="#222F3E" d="M21.6 18h-18v3h18v-3Z"/>
  <path fill="#222F3E" fill-rule="evenodd" d="M9.26 16h-.738a.5.5 0 0 1-.479-.644l2.7-9A.5.5 0 0 1 11.222 6h2.756a.5.5 0 0 1 .479.356l2.7 9a.5.5 0 0 1-.48.644h-.737a.5.5 0 0 1-.479-.355l-.691-2.29a.5.5 0 0 0-.48-.355h-3.38a.5.5 0 0 0-.479.355l-.691 2.29a.5.5 0 0 1-.48.355Zm2.67-7.645-.604 2a.5.5 0 0 0 .479.645h1.59a.5.5 0 0 0 .479-.645l-.604-2A.5.5 0 0 0 12.79 8h-.382a.5.5 0 0 0-.479.355Z" clip-rule="evenodd"/>
</svg>
